<?xml version="1.0" standalone="no"?>
<!DOCTYPE svg PUBLIC "-//W3C//DTD SVG 20010904//EN"
 "http://www.w3.org/TR/2001/REC-SVG-20010904/DTD/svg10.dtd">
<svg version="1.0" xmlns="http://www.w3.org/2000/svg"
 width="500.000000pt" height="500.000000pt" viewBox="0 0 500.000000 500.000000"
 preserveAspectRatio="xMidYMid meet">

<g transform="translate(0.000000,500.000000) scale(0.100000,-0.100000)"
fill="#000000" stroke="none">
<path d="M2235 4985 c-835 -92 -1563 -587 -1949 -1327 -328 -629 -375 -1357
-129 -2026 199 -543 583 -998 1093 -1294 779 -454 1754 -448 2525 15 421 253
734 585 950 1012 327 643 362 1389 98 2055 -229 577 -668 1051 -1228 1326
-419 205 -899 289 -1360 239z m183 -353 c-68 -35 -163 -110 -229 -179 -258
-274 -319 -670 -154 -1010 44 -90 131 -209 196 -269 97 -88 248 -170 380 -206
118 -32 325 -32 449 1 162 42 290 118 423 249 l69 67 -31 -83 c-97 -268 -318
-500 -580 -612 -271 -116 -562 -116 -846 -1 -364 148 -625 519 -651 924 -33
508 308 978 803 1106 106 28 112 29 163 30 l44 1 -36 -18z m2202 -2707 l0
-375 -2120 0 -2120 0 0 375 0 375 2120 0 2120 0 0 -375z m-625 -455 c-18 -20
-45 -27 -45 -12 0 15 24 32 44 32 18 0 19 -1 1 -20z m-473 -36 c4 -3 8 -12 8
-19 0 -11 -6 -12 -26 -5 -36 14 -97 12 -118 -3 -11 -8 -17 -23 -14 -38 4 -32
61 -48 119 -32 35 9 40 8 37 -5 -4 -20 -61 -33 -111 -25 -106 16 -116 108 -15
134 32 8 102 4 120 -7z m68 -59 c0 -58 -2 -65 -20 -65 -18 0 -20 7 -20 65 0
58 2 65 20 65 18 0 20 -7 20 -65z m143 14 l72 -50 3 50 c3 43 6 51 23 51 17 0
19 -7 19 -65 0 -64 0 -65 -28 -65 -16 0 -55 19 -95 45 l-67 45 0 -45 c0 -38
-3 -45 -20 -45 -18 0 -20 7 -20 65 0 59 2 65 20 65 12 0 53 -23 93 -51z m337
36 c0 -12 -16 -15 -80 -15 -47 0 -80 -4 -80 -10 0 -6 33 -10 80 -10 64 0 80
-3 80 -15 0 -12 -16 -15 -80 -15 -47 0 -80 -4 -80 -10 0 -6 33 -10 80 -10 64
0 80 -3 80 -15 0 -12 -17 -15 -95 -15 l-95 0 0 65 0 65 95 0 c78 0 95 -3 95
-15z m117 -37 l53 -52 53 52 c73 72 87 70 87 -13 0 -58 -2 -65 -20 -65 -17 0
-20 7 -20 43 l-1 42 -37 -42 c-23 -26 -46 -43 -59 -43 -13 0 -39 18 -62 43
l-40 42 -1 -42 c0 -36 -3 -43 -20 -43 -18 0 -20 7 -20 65 0 83 14 85 87 13z
m390 -10 c34 -51 38 -64 25 -67 -9 -2 -18 2 -20 8 -5 14 -128 15 -137 1 -3 -5
-15 -10 -26 -10 -17 0 -14 8 23 65 58 88 78 88 135 3z"/>
<path d="M433 2253 c-10 -4 -13 -78 -13 -328 0 -281 2 -324 15 -329 9 -3 944
-5 2078 -3 l2062 2 3 328 2 327 -2047 1 c-1127 1 -2057 3 -2068 4 -11 1 -26 0
-32 -2z m957 -84 c92 -39 154 -138 155 -244 0 -111 -78 -221 -182 -256 -47
-15 -159 -7 -204 14 -164 80 -199 307 -68 435 83 82 187 99 299 51z m566 2
c139 -62 199 -225 131 -363 -60 -122 -192 -177 -327 -137 -99 30 -180 144
-180 254 0 196 196 324 376 246z m1579 -1 c79 -34 136 -103 156 -187 l7 -33
-95 0 c-88 0 -96 2 -114 24 -38 49 -110 40 -133 -16 -37 -87 75 -156 133 -82
18 22 26 24 115 24 l96 0 0 -122 0 -123 -36 42 -36 43 -32 -25 c-105 -80 -246
-77 -343 9 -91 80 -119 206 -69 311 65 140 211 196 351 135z m-2845 -70 c19
-44 37 -77 41 -73 4 5 20 40 37 78 l31 70 80 3 81 3 0 -256 0 -255 -80 0 -80
0 0 78 -1 77 -32 -72 c-17 -40 -35 -73 -38 -73 -4 0 -22 33 -40 73 l-34 72 -3
-77 -3 -78 -74 0 -75 0 0 255 0 255 78 0 78 0 34 -80z m1840 -182 c0 -144 -2
-259 -4 -257 -2 2 -41 54 -85 114 l-81 110 0 148 0 147 85 0 85 0 0 -262z
m241 112 c1 -82 2 -158 3 -167 1 -14 12 -19 51 -23 l50 -5 3 -82 3 -83 -141 0
-140 0 0 255 0 255 85 0 85 0 1 -150z m333 118 c-1 -16 -2 -45 -3 -67 -1 -34
-5 -40 -38 -54 l-38 -15 41 -1 42 -1 0 -170 0 -170 -89 0 -89 0 0 255 0 256
88 -3 87 -3 -1 -27z m816 -58 c0 -73 3 -90 15 -90 12 0 15 17 15 90 l0 90 85
0 85 0 0 -255 0 -255 -85 0 -85 0 0 90 c0 73 -3 90 -15 90 -12 0 -15 -17 -15
-90 l0 -90 -85 0 -85 0 0 255 0 255 85 0 85 0 0 -90z m590 5 l0 -85 -40 0 -40
0 0 -170 0 -170 -85 0 -85 0 0 169 0 170 -42 3 -43 3 -3 83 -3 82 171 0 170 0
0 -85z m-2251 -35 l81 -110 0 -140 0 -140 -85 0 -85 0 0 250 c0 138 2 250 4
250 2 0 41 -50 85 -110z"/>
<path d="M1243 2000 c-37 -15 -54 -69 -37 -115 10 -24 60 -46 89 -39 32 8 65
49 65 81 0 29 -51 83 -77 82 -10 0 -28 -4 -40 -9z"/>
<path d="M1809 1995 c-59 -32 -52 -121 10 -143 38 -13 72 -3 95 30 24 34 19
66 -13 99 -33 32 -53 35 -92 14z"/>
<path d="M4488 1390 l-17 -30 40 0 40 0 -18 30 c-9 17 -20 30 -23 30 -3 0 -13
-14 -22 -30z"/>
</g>
</svg>
